<svg width="108" height="108" viewBox="0 0 108 108" fill="none" xmlns="http://www.w3.org/2000/svg">
<g clip-path="url(#clip0)">
<path d="M79.5375 50.6709C65.3013 52.4913 52.2774 42.4462 50.422 28.2144C50.3354 27.5441 50.3024 26.8829 50.265 26.2181L20.4129 30.0726C19.3175 30.215 18.5451 31.2184 18.6875 32.3139C18.7034 32.4357 18.7305 32.5559 18.7683 32.6727L28.8167 63.641C29.1134 64.5561 30.0194 65.1303 30.9736 65.008L85.4573 57.973C90.4596 57.3277 94.1984 53.0581 94.1778 48.0143L94.161 43.6364C90.1688 47.4914 85.0412 49.958 79.5375 50.6709Z" fill="#F7CB2C"/>
<path d="M85.6843 98.2757C91.1617 97.5685 95.0286 92.5549 94.3213 87.0775C93.6141 81.6002 88.6005 77.7332 83.1232 78.4405C77.6458 79.1477 73.7789 84.1613 74.4861 89.6387C75.1934 95.116 80.207 98.983 85.6843 98.2757Z" fill="#455A64"/>
<path d="M46.0134 103.398C51.4908 102.691 55.3577 97.6773 54.6505 92.2C53.9432 86.7226 48.9296 82.8557 43.4523 83.5629C37.9749 84.2702 34.108 89.2838 34.8152 94.7611C35.5225 100.238 40.5361 104.105 46.0134 103.398Z" fill="#455A64"/>
<path d="M90.545 73.449L44.7611 79.3607C38.1465 80.2008 31.8536 76.2714 29.7052 69.9592L13.7949 22.8609L3.52026 24.1876C2.42479 24.3291 1.42199 23.5556 1.28054 22.4602C1.13909 21.3647 1.91254 20.3619 3.00801 20.2204L14.9092 18.6837C15.852 18.5618 16.7501 19.1202 17.0579 20.0195L33.4959 68.6752C35.03 73.1838 39.524 75.9916 44.2488 75.3935L90.0327 69.4818C91.1282 69.3403 92.131 70.1138 92.2725 71.2092C92.4139 72.3047 91.6404 73.3075 90.545 73.449Z" fill="#455A64"/>
<path d="M79.0251 46.7042C91.0753 45.1483 99.5826 34.1183 98.0267 22.0682C96.4707 10.018 85.4408 1.51069 73.3906 3.06663C61.3404 4.62257 52.8331 15.6525 54.3891 27.7027C55.945 39.7529 66.9749 48.2602 79.0251 46.7042Z" fill="#4CAF50"/>
<path d="M73.5214 35.3151C72.995 35.384 72.4629 35.241 72.0422 34.9172L63.0836 28.0075C62.2209 27.3178 62.0805 26.0593 62.7701 25.1964C63.443 24.3548 64.6616 24.1975 65.526 24.8406L72.9029 30.5268L85.4992 14.1953C86.1586 13.3091 87.4113 13.1253 88.2977 13.7844C89.184 14.4436 89.3677 15.6966 88.7085 16.5829C88.6947 16.6015 88.6806 16.6198 88.6661 16.6379L74.8468 34.5551C74.5232 34.9738 74.0465 35.2471 73.5214 35.3151Z" fill="#FAFAFA"/>
</g>
<defs>
<clipPath id="clip0">
<rect width="96" height="96" fill="white" transform="translate(0 12.543) rotate(-7.35742)"/>
</clipPath>
</defs>
</svg>
